<mxfile host="Electron" agent="Mozilla/5.0 (Windows NT 10.0; Win64; x64) AppleWebKit/537.36 (KHTML, like Gecko) draw.io/26.0.4 Chrome/128.0.6613.186 Electron/32.2.5 Safari/537.36" version="26.0.4" pages="2">
  <diagram name="Entities" id="wzpwzz7P80Bj0UPcbZgl">
    <mxGraphModel dx="3585" dy="2210" grid="1" gridSize="10" guides="1" tooltips="1" connect="1" arrows="1" fold="1" page="1" pageScale="1" pageWidth="850" pageHeight="1100" math="0" shadow="0">
      <root>
        <mxCell id="0" />
        <mxCell id="1" parent="0" />
        <mxCell id="wvBEThpT9S7OOWl2AiFi-2" value="" style="rounded=0;whiteSpace=wrap;html=1;movable=0;resizable=0;rotatable=0;deletable=0;editable=0;locked=1;connectable=0;" parent="1" vertex="1">
          <mxGeometry width="850" height="1100" as="geometry" />
        </mxCell>
        <mxCell id="-TYI5EpY2BJb9eIcL_Qs-51" style="edgeStyle=orthogonalEdgeStyle;rounded=0;orthogonalLoop=1;jettySize=auto;html=1;entryX=0;entryY=0.5;entryDx=0;entryDy=0;exitX=1;exitY=0.5;exitDx=0;exitDy=0;endArrow=none;endFill=0;" edge="1" parent="1" source="mnpdlEdS9YgkTHyXqgW0-10" target="-TYI5EpY2BJb9eIcL_Qs-17">
          <mxGeometry relative="1" as="geometry" />
        </mxCell>
        <mxCell id="mnpdlEdS9YgkTHyXqgW0-1" value="Users" style="swimlane;fontStyle=0;childLayout=stackLayout;horizontal=1;startSize=30;horizontalStack=0;resizeParent=1;resizeParentMax=0;resizeLast=0;collapsible=1;marginBottom=0;whiteSpace=wrap;html=1;" vertex="1" parent="1">
          <mxGeometry x="38" y="202" width="140" height="360" as="geometry">
            <mxRectangle x="30" y="40" width="70" height="30" as="alternateBounds" />
          </mxGeometry>
        </mxCell>
        <mxCell id="mnpdlEdS9YgkTHyXqgW0-2" value="id (PK)" style="text;strokeColor=none;fillColor=none;align=left;verticalAlign=middle;spacingLeft=4;spacingRight=4;overflow=hidden;points=[[0,0.5],[1,0.5]];portConstraint=eastwest;rotatable=0;whiteSpace=wrap;html=1;" vertex="1" parent="mnpdlEdS9YgkTHyXqgW0-1">
          <mxGeometry y="30" width="140" height="30" as="geometry" />
        </mxCell>
        <mxCell id="mnpdlEdS9YgkTHyXqgW0-3" value="name" style="text;strokeColor=none;fillColor=none;align=left;verticalAlign=middle;spacingLeft=4;spacingRight=4;overflow=hidden;points=[[0,0.5],[1,0.5]];portConstraint=eastwest;rotatable=0;whiteSpace=wrap;html=1;" vertex="1" parent="mnpdlEdS9YgkTHyXqgW0-1">
          <mxGeometry y="60" width="140" height="30" as="geometry" />
        </mxCell>
        <mxCell id="mnpdlEdS9YgkTHyXqgW0-6" value="email" style="text;strokeColor=none;fillColor=none;align=left;verticalAlign=middle;spacingLeft=4;spacingRight=4;overflow=hidden;points=[[0,0.5],[1,0.5]];portConstraint=eastwest;rotatable=0;whiteSpace=wrap;html=1;" vertex="1" parent="mnpdlEdS9YgkTHyXqgW0-1">
          <mxGeometry y="90" width="140" height="30" as="geometry" />
        </mxCell>
        <mxCell id="mnpdlEdS9YgkTHyXqgW0-4" value="password" style="text;strokeColor=none;fillColor=none;align=left;verticalAlign=middle;spacingLeft=4;spacingRight=4;overflow=hidden;points=[[0,0.5],[1,0.5]];portConstraint=eastwest;rotatable=0;whiteSpace=wrap;html=1;" vertex="1" parent="mnpdlEdS9YgkTHyXqgW0-1">
          <mxGeometry y="120" width="140" height="30" as="geometry" />
        </mxCell>
        <mxCell id="mnpdlEdS9YgkTHyXqgW0-7" value="age" style="text;strokeColor=none;fillColor=none;align=left;verticalAlign=middle;spacingLeft=4;spacingRight=4;overflow=hidden;points=[[0,0.5],[1,0.5]];portConstraint=eastwest;rotatable=0;whiteSpace=wrap;html=1;" vertex="1" parent="mnpdlEdS9YgkTHyXqgW0-1">
          <mxGeometry y="150" width="140" height="30" as="geometry" />
        </mxCell>
        <mxCell id="mnpdlEdS9YgkTHyXqgW0-8" value="gender" style="text;strokeColor=none;fillColor=none;align=left;verticalAlign=middle;spacingLeft=4;spacingRight=4;overflow=hidden;points=[[0,0.5],[1,0.5]];portConstraint=eastwest;rotatable=0;whiteSpace=wrap;html=1;" vertex="1" parent="mnpdlEdS9YgkTHyXqgW0-1">
          <mxGeometry y="180" width="140" height="30" as="geometry" />
        </mxCell>
        <mxCell id="mnpdlEdS9YgkTHyXqgW0-10" value="timezone" style="text;strokeColor=none;fillColor=none;align=left;verticalAlign=middle;spacingLeft=4;spacingRight=4;overflow=hidden;points=[[0,0.5],[1,0.5]];portConstraint=eastwest;rotatable=0;whiteSpace=wrap;html=1;" vertex="1" parent="mnpdlEdS9YgkTHyXqgW0-1">
          <mxGeometry y="210" width="140" height="30" as="geometry" />
        </mxCell>
        <mxCell id="mnpdlEdS9YgkTHyXqgW0-9" value="country" style="text;strokeColor=none;fillColor=none;align=left;verticalAlign=middle;spacingLeft=4;spacingRight=4;overflow=hidden;points=[[0,0.5],[1,0.5]];portConstraint=eastwest;rotatable=0;whiteSpace=wrap;html=1;" vertex="1" parent="mnpdlEdS9YgkTHyXqgW0-1">
          <mxGeometry y="240" width="140" height="30" as="geometry" />
        </mxCell>
        <mxCell id="mnpdlEdS9YgkTHyXqgW0-18" value="phone_number" style="text;strokeColor=none;fillColor=none;align=left;verticalAlign=middle;spacingLeft=4;spacingRight=4;overflow=hidden;points=[[0,0.5],[1,0.5]];portConstraint=eastwest;rotatable=0;whiteSpace=wrap;html=1;" vertex="1" parent="mnpdlEdS9YgkTHyXqgW0-1">
          <mxGeometry y="270" width="140" height="30" as="geometry" />
        </mxCell>
        <mxCell id="khxZPwTVjfgCLgpqMNT_-7" value="telegram_number" style="text;strokeColor=none;fillColor=none;align=left;verticalAlign=middle;spacingLeft=4;spacingRight=4;overflow=hidden;points=[[0,0.5],[1,0.5]];portConstraint=eastwest;rotatable=0;whiteSpace=wrap;html=1;" vertex="1" parent="mnpdlEdS9YgkTHyXqgW0-1">
          <mxGeometry y="300" width="140" height="30" as="geometry" />
        </mxCell>
        <mxCell id="mnpdlEdS9YgkTHyXqgW0-21" value="roleId (FK)" style="text;strokeColor=none;fillColor=none;align=left;verticalAlign=middle;spacingLeft=4;spacingRight=4;overflow=hidden;points=[[0,0.5],[1,0.5]];portConstraint=eastwest;rotatable=0;whiteSpace=wrap;html=1;" vertex="1" parent="mnpdlEdS9YgkTHyXqgW0-1">
          <mxGeometry y="330" width="140" height="30" as="geometry" />
        </mxCell>
        <mxCell id="mnpdlEdS9YgkTHyXqgW0-22" value="Roles" style="swimlane;fontStyle=0;childLayout=stackLayout;horizontal=1;startSize=30;horizontalStack=0;resizeParent=1;resizeParentMax=0;resizeLast=0;collapsible=1;marginBottom=0;whiteSpace=wrap;html=1;" vertex="1" parent="1">
          <mxGeometry x="284" y="443" width="140" height="90" as="geometry">
            <mxRectangle x="220" y="180" width="110" height="30" as="alternateBounds" />
          </mxGeometry>
        </mxCell>
        <mxCell id="mnpdlEdS9YgkTHyXqgW0-23" value="id (PK)" style="text;strokeColor=none;fillColor=none;align=left;verticalAlign=middle;spacingLeft=4;spacingRight=4;overflow=hidden;points=[[0,0.5],[1,0.5]];portConstraint=eastwest;rotatable=0;whiteSpace=wrap;html=1;" vertex="1" parent="mnpdlEdS9YgkTHyXqgW0-22">
          <mxGeometry y="30" width="140" height="30" as="geometry" />
        </mxCell>
        <mxCell id="mnpdlEdS9YgkTHyXqgW0-27" value="name" style="text;strokeColor=none;fillColor=none;align=left;verticalAlign=middle;spacingLeft=4;spacingRight=4;overflow=hidden;points=[[0,0.5],[1,0.5]];portConstraint=eastwest;rotatable=0;whiteSpace=wrap;html=1;" vertex="1" parent="mnpdlEdS9YgkTHyXqgW0-22">
          <mxGeometry y="60" width="140" height="30" as="geometry" />
        </mxCell>
        <mxCell id="mnpdlEdS9YgkTHyXqgW0-36" style="edgeStyle=orthogonalEdgeStyle;rounded=0;orthogonalLoop=1;jettySize=auto;html=1;entryX=-0.008;entryY=0.072;entryDx=0;entryDy=0;entryPerimeter=0;endArrow=none;endFill=0;" edge="1" parent="1" target="-TYI5EpY2BJb9eIcL_Qs-60">
          <mxGeometry relative="1" as="geometry">
            <mxPoint x="180" y="334" as="sourcePoint" />
            <mxPoint x="227.44000000000005" y="345.3900000000001" as="targetPoint" />
          </mxGeometry>
        </mxCell>
        <mxCell id="khxZPwTVjfgCLgpqMNT_-2" style="edgeStyle=orthogonalEdgeStyle;rounded=0;orthogonalLoop=1;jettySize=auto;html=1;entryX=-0.015;entryY=0.126;entryDx=0;entryDy=0;exitX=1;exitY=0.5;exitDx=0;exitDy=0;entryPerimeter=0;endArrow=none;endFill=0;" edge="1" parent="1" source="mnpdlEdS9YgkTHyXqgW0-21" target="mnpdlEdS9YgkTHyXqgW0-27">
          <mxGeometry relative="1" as="geometry">
            <mxPoint x="457.70000000000005" y="381.28999999999996" as="targetPoint" />
            <Array as="points">
              <mxPoint x="178" y="506" />
            </Array>
          </mxGeometry>
        </mxCell>
        <mxCell id="khxZPwTVjfgCLgpqMNT_-4" value="*" style="text;html=1;align=center;verticalAlign=middle;whiteSpace=wrap;rounded=0;" vertex="1" parent="1">
          <mxGeometry x="178" y="482" width="20" height="30" as="geometry" />
        </mxCell>
        <mxCell id="khxZPwTVjfgCLgpqMNT_-6" value="1" style="text;html=1;align=center;verticalAlign=middle;whiteSpace=wrap;rounded=0;" vertex="1" parent="1">
          <mxGeometry x="264" y="483" width="20" height="30" as="geometry" />
        </mxCell>
        <mxCell id="-TYI5EpY2BJb9eIcL_Qs-1" value="Books" style="swimlane;fontStyle=0;childLayout=stackLayout;horizontal=1;startSize=30;horizontalStack=0;resizeParent=1;resizeParentMax=0;resizeLast=0;collapsible=1;marginBottom=0;whiteSpace=wrap;html=1;" vertex="1" parent="1">
          <mxGeometry x="393" y="844" width="140" height="180" as="geometry">
            <mxRectangle x="30" y="40" width="70" height="30" as="alternateBounds" />
          </mxGeometry>
        </mxCell>
        <mxCell id="-TYI5EpY2BJb9eIcL_Qs-2" value="id (PK)" style="text;strokeColor=none;fillColor=none;align=left;verticalAlign=middle;spacingLeft=4;spacingRight=4;overflow=hidden;points=[[0,0.5],[1,0.5]];portConstraint=eastwest;rotatable=0;whiteSpace=wrap;html=1;" vertex="1" parent="-TYI5EpY2BJb9eIcL_Qs-1">
          <mxGeometry y="30" width="140" height="30" as="geometry" />
        </mxCell>
        <mxCell id="-TYI5EpY2BJb9eIcL_Qs-3" value="name" style="text;strokeColor=none;fillColor=none;align=left;verticalAlign=middle;spacingLeft=4;spacingRight=4;overflow=hidden;points=[[0,0.5],[1,0.5]];portConstraint=eastwest;rotatable=0;whiteSpace=wrap;html=1;" vertex="1" parent="-TYI5EpY2BJb9eIcL_Qs-1">
          <mxGeometry y="60" width="140" height="30" as="geometry" />
        </mxCell>
        <mxCell id="-TYI5EpY2BJb9eIcL_Qs-4" value="level_id (FK)" style="text;strokeColor=none;fillColor=none;align=left;verticalAlign=middle;spacingLeft=4;spacingRight=4;overflow=hidden;points=[[0,0.5],[1,0.5]];portConstraint=eastwest;rotatable=0;whiteSpace=wrap;html=1;" vertex="1" parent="-TYI5EpY2BJb9eIcL_Qs-1">
          <mxGeometry y="90" width="140" height="30" as="geometry" />
        </mxCell>
        <mxCell id="-TYI5EpY2BJb9eIcL_Qs-5" value="pdf_url" style="text;strokeColor=none;fillColor=none;align=left;verticalAlign=middle;spacingLeft=4;spacingRight=4;overflow=hidden;points=[[0,0.5],[1,0.5]];portConstraint=eastwest;rotatable=0;whiteSpace=wrap;html=1;" vertex="1" parent="-TYI5EpY2BJb9eIcL_Qs-1">
          <mxGeometry y="120" width="140" height="30" as="geometry" />
        </mxCell>
        <mxCell id="-TYI5EpY2BJb9eIcL_Qs-6" value="pic_url" style="text;strokeColor=none;fillColor=none;align=left;verticalAlign=middle;spacingLeft=4;spacingRight=4;overflow=hidden;points=[[0,0.5],[1,0.5]];portConstraint=eastwest;rotatable=0;whiteSpace=wrap;html=1;" vertex="1" parent="-TYI5EpY2BJb9eIcL_Qs-1">
          <mxGeometry y="150" width="140" height="30" as="geometry" />
        </mxCell>
        <mxCell id="-TYI5EpY2BJb9eIcL_Qs-13" value="Courses" style="swimlane;fontStyle=0;childLayout=stackLayout;horizontal=1;startSize=30;horizontalStack=0;resizeParent=1;resizeParentMax=0;resizeLast=0;collapsible=1;marginBottom=0;whiteSpace=wrap;html=1;" vertex="1" parent="1">
          <mxGeometry x="673" y="202" width="140" height="330" as="geometry">
            <mxRectangle x="30" y="40" width="70" height="30" as="alternateBounds" />
          </mxGeometry>
        </mxCell>
        <mxCell id="-TYI5EpY2BJb9eIcL_Qs-14" value="id (PK)" style="text;strokeColor=none;fillColor=none;align=left;verticalAlign=middle;spacingLeft=4;spacingRight=4;overflow=hidden;points=[[0,0.5],[1,0.5]];portConstraint=eastwest;rotatable=0;whiteSpace=wrap;html=1;" vertex="1" parent="-TYI5EpY2BJb9eIcL_Qs-13">
          <mxGeometry y="30" width="140" height="30" as="geometry" />
        </mxCell>
        <mxCell id="-TYI5EpY2BJb9eIcL_Qs-15" value="name" style="text;strokeColor=none;fillColor=none;align=left;verticalAlign=middle;spacingLeft=4;spacingRight=4;overflow=hidden;points=[[0,0.5],[1,0.5]];portConstraint=eastwest;rotatable=0;whiteSpace=wrap;html=1;" vertex="1" parent="-TYI5EpY2BJb9eIcL_Qs-13">
          <mxGeometry y="60" width="140" height="30" as="geometry" />
        </mxCell>
        <mxCell id="-TYI5EpY2BJb9eIcL_Qs-16" value="description" style="text;strokeColor=none;fillColor=none;align=left;verticalAlign=middle;spacingLeft=4;spacingRight=4;overflow=hidden;points=[[0,0.5],[1,0.5]];portConstraint=eastwest;rotatable=0;whiteSpace=wrap;html=1;" vertex="1" parent="-TYI5EpY2BJb9eIcL_Qs-13">
          <mxGeometry y="90" width="140" height="30" as="geometry" />
        </mxCell>
        <mxCell id="-TYI5EpY2BJb9eIcL_Qs-17" value="about" style="text;strokeColor=none;fillColor=none;align=left;verticalAlign=middle;spacingLeft=4;spacingRight=4;overflow=hidden;points=[[0,0.5],[1,0.5]];portConstraint=eastwest;rotatable=0;whiteSpace=wrap;html=1;" vertex="1" parent="-TYI5EpY2BJb9eIcL_Qs-13">
          <mxGeometry y="120" width="140" height="30" as="geometry" />
        </mxCell>
        <mxCell id="-TYI5EpY2BJb9eIcL_Qs-18" value="demo_url" style="text;strokeColor=none;fillColor=none;align=left;verticalAlign=middle;spacingLeft=4;spacingRight=4;overflow=hidden;points=[[0,0.5],[1,0.5]];portConstraint=eastwest;rotatable=0;whiteSpace=wrap;html=1;" vertex="1" parent="-TYI5EpY2BJb9eIcL_Qs-13">
          <mxGeometry y="150" width="140" height="30" as="geometry" />
        </mxCell>
        <mxCell id="-TYI5EpY2BJb9eIcL_Qs-20" value="prerequisites" style="text;strokeColor=none;fillColor=none;align=left;verticalAlign=middle;spacingLeft=4;spacingRight=4;overflow=hidden;points=[[0,0.5],[1,0.5]];portConstraint=eastwest;rotatable=0;whiteSpace=wrap;html=1;" vertex="1" parent="-TYI5EpY2BJb9eIcL_Qs-13">
          <mxGeometry y="180" width="140" height="30" as="geometry" />
        </mxCell>
        <mxCell id="-TYI5EpY2BJb9eIcL_Qs-19" value="added_by (FK)" style="text;strokeColor=none;fillColor=none;align=left;verticalAlign=middle;spacingLeft=4;spacingRight=4;overflow=hidden;points=[[0,0.5],[1,0.5]];portConstraint=eastwest;rotatable=0;whiteSpace=wrap;html=1;" vertex="1" parent="-TYI5EpY2BJb9eIcL_Qs-13">
          <mxGeometry y="210" width="140" height="30" as="geometry" />
        </mxCell>
        <mxCell id="-TYI5EpY2BJb9eIcL_Qs-21" value="updated_by (FK)" style="text;strokeColor=none;fillColor=none;align=left;verticalAlign=middle;spacingLeft=4;spacingRight=4;overflow=hidden;points=[[0,0.5],[1,0.5]];portConstraint=eastwest;rotatable=0;whiteSpace=wrap;html=1;" vertex="1" parent="-TYI5EpY2BJb9eIcL_Qs-13">
          <mxGeometry y="240" width="140" height="30" as="geometry" />
        </mxCell>
        <mxCell id="-TYI5EpY2BJb9eIcL_Qs-23" value="created_at" style="text;strokeColor=none;fillColor=none;align=left;verticalAlign=middle;spacingLeft=4;spacingRight=4;overflow=hidden;points=[[0,0.5],[1,0.5]];portConstraint=eastwest;rotatable=0;whiteSpace=wrap;html=1;" vertex="1" parent="-TYI5EpY2BJb9eIcL_Qs-13">
          <mxGeometry y="270" width="140" height="30" as="geometry" />
        </mxCell>
        <mxCell id="-TYI5EpY2BJb9eIcL_Qs-24" value="updated_at" style="text;strokeColor=none;fillColor=none;align=left;verticalAlign=middle;spacingLeft=4;spacingRight=4;overflow=hidden;points=[[0,0.5],[1,0.5]];portConstraint=eastwest;rotatable=0;whiteSpace=wrap;html=1;" vertex="1" parent="-TYI5EpY2BJb9eIcL_Qs-13">
          <mxGeometry y="300" width="140" height="30" as="geometry" />
        </mxCell>
        <mxCell id="-TYI5EpY2BJb9eIcL_Qs-25" value="Levels" style="swimlane;fontStyle=0;childLayout=stackLayout;horizontal=1;startSize=30;horizontalStack=0;resizeParent=1;resizeParentMax=0;resizeLast=0;collapsible=1;marginBottom=0;whiteSpace=wrap;html=1;" vertex="1" parent="1">
          <mxGeometry x="673" y="650" width="140" height="150" as="geometry">
            <mxRectangle x="30" y="40" width="70" height="30" as="alternateBounds" />
          </mxGeometry>
        </mxCell>
        <mxCell id="-TYI5EpY2BJb9eIcL_Qs-26" value="id (PK)" style="text;strokeColor=none;fillColor=none;align=left;verticalAlign=middle;spacingLeft=4;spacingRight=4;overflow=hidden;points=[[0,0.5],[1,0.5]];portConstraint=eastwest;rotatable=0;whiteSpace=wrap;html=1;" vertex="1" parent="-TYI5EpY2BJb9eIcL_Qs-25">
          <mxGeometry y="30" width="140" height="30" as="geometry" />
        </mxCell>
        <mxCell id="-TYI5EpY2BJb9eIcL_Qs-27" value="name" style="text;strokeColor=none;fillColor=none;align=left;verticalAlign=middle;spacingLeft=4;spacingRight=4;overflow=hidden;points=[[0,0.5],[1,0.5]];portConstraint=eastwest;rotatable=0;whiteSpace=wrap;html=1;" vertex="1" parent="-TYI5EpY2BJb9eIcL_Qs-25">
          <mxGeometry y="60" width="140" height="30" as="geometry" />
        </mxCell>
        <mxCell id="-TYI5EpY2BJb9eIcL_Qs-28" value="course_id (FK)" style="text;strokeColor=none;fillColor=none;align=left;verticalAlign=middle;spacingLeft=4;spacingRight=4;overflow=hidden;points=[[0,0.5],[1,0.5]];portConstraint=eastwest;rotatable=0;whiteSpace=wrap;html=1;" vertex="1" parent="-TYI5EpY2BJb9eIcL_Qs-25">
          <mxGeometry y="90" width="140" height="30" as="geometry" />
        </mxCell>
        <mxCell id="-TYI5EpY2BJb9eIcL_Qs-29" value="book_id (FK)" style="text;strokeColor=none;fillColor=none;align=left;verticalAlign=middle;spacingLeft=4;spacingRight=4;overflow=hidden;points=[[0,0.5],[1,0.5]];portConstraint=eastwest;rotatable=0;whiteSpace=wrap;html=1;" vertex="1" parent="-TYI5EpY2BJb9eIcL_Qs-25">
          <mxGeometry y="120" width="140" height="30" as="geometry" />
        </mxCell>
        <mxCell id="-TYI5EpY2BJb9eIcL_Qs-36" value="Materials " style="swimlane;fontStyle=0;childLayout=stackLayout;horizontal=1;startSize=30;horizontalStack=0;resizeParent=1;resizeParentMax=0;resizeLast=0;collapsible=1;marginBottom=0;whiteSpace=wrap;html=1;" vertex="1" parent="1">
          <mxGeometry x="445" y="612" width="140" height="180" as="geometry">
            <mxRectangle x="30" y="40" width="70" height="30" as="alternateBounds" />
          </mxGeometry>
        </mxCell>
        <mxCell id="-TYI5EpY2BJb9eIcL_Qs-37" value="id (PK)" style="text;strokeColor=none;fillColor=none;align=left;verticalAlign=middle;spacingLeft=4;spacingRight=4;overflow=hidden;points=[[0,0.5],[1,0.5]];portConstraint=eastwest;rotatable=0;whiteSpace=wrap;html=1;" vertex="1" parent="-TYI5EpY2BJb9eIcL_Qs-36">
          <mxGeometry y="30" width="140" height="30" as="geometry" />
        </mxCell>
        <mxCell id="-TYI5EpY2BJb9eIcL_Qs-38" value="name" style="text;strokeColor=none;fillColor=none;align=left;verticalAlign=middle;spacingLeft=4;spacingRight=4;overflow=hidden;points=[[0,0.5],[1,0.5]];portConstraint=eastwest;rotatable=0;whiteSpace=wrap;html=1;" vertex="1" parent="-TYI5EpY2BJb9eIcL_Qs-36">
          <mxGeometry y="60" width="140" height="30" as="geometry" />
        </mxCell>
        <mxCell id="-TYI5EpY2BJb9eIcL_Qs-41" value="description" style="text;strokeColor=none;fillColor=none;align=left;verticalAlign=middle;spacingLeft=4;spacingRight=4;overflow=hidden;points=[[0,0.5],[1,0.5]];portConstraint=eastwest;rotatable=0;whiteSpace=wrap;html=1;" vertex="1" parent="-TYI5EpY2BJb9eIcL_Qs-36">
          <mxGeometry y="90" width="140" height="30" as="geometry" />
        </mxCell>
        <mxCell id="-TYI5EpY2BJb9eIcL_Qs-39" value="course_id (FK)" style="text;strokeColor=none;fillColor=none;align=left;verticalAlign=middle;spacingLeft=4;spacingRight=4;overflow=hidden;points=[[0,0.5],[1,0.5]];portConstraint=eastwest;rotatable=0;whiteSpace=wrap;html=1;" vertex="1" parent="-TYI5EpY2BJb9eIcL_Qs-36">
          <mxGeometry y="120" width="140" height="30" as="geometry" />
        </mxCell>
        <mxCell id="-TYI5EpY2BJb9eIcL_Qs-40" value="url" style="text;strokeColor=none;fillColor=none;align=left;verticalAlign=middle;spacingLeft=4;spacingRight=4;overflow=hidden;points=[[0,0.5],[1,0.5]];portConstraint=eastwest;rotatable=0;whiteSpace=wrap;html=1;" vertex="1" parent="-TYI5EpY2BJb9eIcL_Qs-36">
          <mxGeometry y="150" width="140" height="30" as="geometry" />
        </mxCell>
        <mxCell id="-TYI5EpY2BJb9eIcL_Qs-42" value="Departments " style="swimlane;fontStyle=0;childLayout=stackLayout;horizontal=1;startSize=30;horizontalStack=0;resizeParent=1;resizeParentMax=0;resizeLast=0;collapsible=1;marginBottom=0;whiteSpace=wrap;html=1;" vertex="1" parent="1">
          <mxGeometry x="38" y="697" width="140" height="120" as="geometry">
            <mxRectangle x="30" y="40" width="70" height="30" as="alternateBounds" />
          </mxGeometry>
        </mxCell>
        <mxCell id="-TYI5EpY2BJb9eIcL_Qs-43" value="id (PK)" style="text;strokeColor=none;fillColor=none;align=left;verticalAlign=middle;spacingLeft=4;spacingRight=4;overflow=hidden;points=[[0,0.5],[1,0.5]];portConstraint=eastwest;rotatable=0;whiteSpace=wrap;html=1;" vertex="1" parent="-TYI5EpY2BJb9eIcL_Qs-42">
          <mxGeometry y="30" width="140" height="30" as="geometry" />
        </mxCell>
        <mxCell id="-TYI5EpY2BJb9eIcL_Qs-44" value="name" style="text;strokeColor=none;fillColor=none;align=left;verticalAlign=middle;spacingLeft=4;spacingRight=4;overflow=hidden;points=[[0,0.5],[1,0.5]];portConstraint=eastwest;rotatable=0;whiteSpace=wrap;html=1;" vertex="1" parent="-TYI5EpY2BJb9eIcL_Qs-42">
          <mxGeometry y="60" width="140" height="30" as="geometry" />
        </mxCell>
        <mxCell id="-TYI5EpY2BJb9eIcL_Qs-45" value="supervisor_id (FK)" style="text;strokeColor=none;fillColor=none;align=left;verticalAlign=middle;spacingLeft=4;spacingRight=4;overflow=hidden;points=[[0,0.5],[1,0.5]];portConstraint=eastwest;rotatable=0;whiteSpace=wrap;html=1;" vertex="1" parent="-TYI5EpY2BJb9eIcL_Qs-42">
          <mxGeometry y="90" width="140" height="30" as="geometry" />
        </mxCell>
        <mxCell id="-TYI5EpY2BJb9eIcL_Qs-47" value="CourseRequests  " style="swimlane;fontStyle=0;childLayout=stackLayout;horizontal=1;startSize=30;horizontalStack=0;resizeParent=1;resizeParentMax=0;resizeLast=0;collapsible=1;marginBottom=0;whiteSpace=wrap;html=1;" vertex="1" parent="1">
          <mxGeometry x="238" y="622" width="140" height="180" as="geometry">
            <mxRectangle x="30" y="40" width="70" height="30" as="alternateBounds" />
          </mxGeometry>
        </mxCell>
        <mxCell id="-TYI5EpY2BJb9eIcL_Qs-48" value="id (PK)" style="text;strokeColor=none;fillColor=none;align=left;verticalAlign=middle;spacingLeft=4;spacingRight=4;overflow=hidden;points=[[0,0.5],[1,0.5]];portConstraint=eastwest;rotatable=0;whiteSpace=wrap;html=1;" vertex="1" parent="-TYI5EpY2BJb9eIcL_Qs-47">
          <mxGeometry y="30" width="140" height="30" as="geometry" />
        </mxCell>
        <mxCell id="-TYI5EpY2BJb9eIcL_Qs-49" value="user_id (FK)" style="text;strokeColor=none;fillColor=none;align=left;verticalAlign=middle;spacingLeft=4;spacingRight=4;overflow=hidden;points=[[0,0.5],[1,0.5]];portConstraint=eastwest;rotatable=0;whiteSpace=wrap;html=1;" vertex="1" parent="-TYI5EpY2BJb9eIcL_Qs-47">
          <mxGeometry y="60" width="140" height="30" as="geometry" />
        </mxCell>
        <mxCell id="-TYI5EpY2BJb9eIcL_Qs-52" value="course_id (FK)" style="text;strokeColor=none;fillColor=none;align=left;verticalAlign=middle;spacingLeft=4;spacingRight=4;overflow=hidden;points=[[0,0.5],[1,0.5]];portConstraint=eastwest;rotatable=0;whiteSpace=wrap;html=1;" vertex="1" parent="-TYI5EpY2BJb9eIcL_Qs-47">
          <mxGeometry y="90" width="140" height="30" as="geometry" />
        </mxCell>
        <mxCell id="-TYI5EpY2BJb9eIcL_Qs-54" value="supervisor_id (FK)" style="text;strokeColor=none;fillColor=none;align=left;verticalAlign=middle;spacingLeft=4;spacingRight=4;overflow=hidden;points=[[0,0.5],[1,0.5]];portConstraint=eastwest;rotatable=0;whiteSpace=wrap;html=1;" vertex="1" parent="-TYI5EpY2BJb9eIcL_Qs-47">
          <mxGeometry y="120" width="140" height="30" as="geometry" />
        </mxCell>
        <mxCell id="-TYI5EpY2BJb9eIcL_Qs-55" value="department_id (FK)" style="text;strokeColor=none;fillColor=none;align=left;verticalAlign=middle;spacingLeft=4;spacingRight=4;overflow=hidden;points=[[0,0.5],[1,0.5]];portConstraint=eastwest;rotatable=0;whiteSpace=wrap;html=1;" vertex="1" parent="-TYI5EpY2BJb9eIcL_Qs-47">
          <mxGeometry y="150" width="140" height="30" as="geometry" />
        </mxCell>
        <mxCell id="-TYI5EpY2BJb9eIcL_Qs-57" value="Sessions  " style="swimlane;fontStyle=0;childLayout=stackLayout;horizontal=1;startSize=30;horizontalStack=0;resizeParent=1;resizeParentMax=0;resizeLast=0;collapsible=1;marginBottom=0;whiteSpace=wrap;html=1;" vertex="1" parent="1">
          <mxGeometry x="253" y="242" width="140" height="150" as="geometry">
            <mxRectangle x="30" y="40" width="70" height="30" as="alternateBounds" />
          </mxGeometry>
        </mxCell>
        <mxCell id="-TYI5EpY2BJb9eIcL_Qs-58" value="id (PK)" style="text;strokeColor=none;fillColor=none;align=left;verticalAlign=middle;spacingLeft=4;spacingRight=4;overflow=hidden;points=[[0,0.5],[1,0.5]];portConstraint=eastwest;rotatable=0;whiteSpace=wrap;html=1;" vertex="1" parent="-TYI5EpY2BJb9eIcL_Qs-57">
          <mxGeometry y="30" width="140" height="30" as="geometry" />
        </mxCell>
        <mxCell id="-TYI5EpY2BJb9eIcL_Qs-59" value="name" style="text;strokeColor=none;fillColor=none;align=left;verticalAlign=middle;spacingLeft=4;spacingRight=4;overflow=hidden;points=[[0,0.5],[1,0.5]];portConstraint=eastwest;rotatable=0;whiteSpace=wrap;html=1;" vertex="1" parent="-TYI5EpY2BJb9eIcL_Qs-57">
          <mxGeometry y="60" width="140" height="30" as="geometry" />
        </mxCell>
        <mxCell id="-TYI5EpY2BJb9eIcL_Qs-60" value="time" style="text;strokeColor=none;fillColor=none;align=left;verticalAlign=middle;spacingLeft=4;spacingRight=4;overflow=hidden;points=[[0,0.5],[1,0.5]];portConstraint=eastwest;rotatable=0;whiteSpace=wrap;html=1;" vertex="1" parent="-TYI5EpY2BJb9eIcL_Qs-57">
          <mxGeometry y="90" width="140" height="30" as="geometry" />
        </mxCell>
        <mxCell id="-TYI5EpY2BJb9eIcL_Qs-64" value="teacher_id (FK)" style="text;strokeColor=none;fillColor=none;align=left;verticalAlign=middle;spacingLeft=4;spacingRight=4;overflow=hidden;points=[[0,0.5],[1,0.5]];portConstraint=eastwest;rotatable=0;whiteSpace=wrap;html=1;" vertex="1" parent="-TYI5EpY2BJb9eIcL_Qs-57">
          <mxGeometry y="120" width="140" height="30" as="geometry" />
        </mxCell>
        <mxCell id="-TYI5EpY2BJb9eIcL_Qs-66" value="HomeworkNotifications   " style="swimlane;fontStyle=0;childLayout=stackLayout;horizontal=1;startSize=30;horizontalStack=0;resizeParent=1;resizeParentMax=0;resizeLast=0;collapsible=1;marginBottom=0;whiteSpace=wrap;html=1;" vertex="1" parent="1">
          <mxGeometry x="445" y="76" width="140" height="180" as="geometry">
            <mxRectangle x="30" y="40" width="70" height="30" as="alternateBounds" />
          </mxGeometry>
        </mxCell>
        <mxCell id="-TYI5EpY2BJb9eIcL_Qs-67" value="id (PK)" style="text;strokeColor=none;fillColor=none;align=left;verticalAlign=middle;spacingLeft=4;spacingRight=4;overflow=hidden;points=[[0,0.5],[1,0.5]];portConstraint=eastwest;rotatable=0;whiteSpace=wrap;html=1;" vertex="1" parent="-TYI5EpY2BJb9eIcL_Qs-66">
          <mxGeometry y="30" width="140" height="30" as="geometry" />
        </mxCell>
        <mxCell id="-TYI5EpY2BJb9eIcL_Qs-68" value="teacher_id (FK)" style="text;strokeColor=none;fillColor=none;align=left;verticalAlign=middle;spacingLeft=4;spacingRight=4;overflow=hidden;points=[[0,0.5],[1,0.5]];portConstraint=eastwest;rotatable=0;whiteSpace=wrap;html=1;" vertex="1" parent="-TYI5EpY2BJb9eIcL_Qs-66">
          <mxGeometry y="60" width="140" height="30" as="geometry" />
        </mxCell>
        <mxCell id="-TYI5EpY2BJb9eIcL_Qs-69" value="student_id (FK)" style="text;strokeColor=none;fillColor=none;align=left;verticalAlign=middle;spacingLeft=4;spacingRight=4;overflow=hidden;points=[[0,0.5],[1,0.5]];portConstraint=eastwest;rotatable=0;whiteSpace=wrap;html=1;" vertex="1" parent="-TYI5EpY2BJb9eIcL_Qs-66">
          <mxGeometry y="90" width="140" height="30" as="geometry" />
        </mxCell>
        <mxCell id="-TYI5EpY2BJb9eIcL_Qs-70" value="course_id (FK)" style="text;strokeColor=none;fillColor=none;align=left;verticalAlign=middle;spacingLeft=4;spacingRight=4;overflow=hidden;points=[[0,0.5],[1,0.5]];portConstraint=eastwest;rotatable=0;whiteSpace=wrap;html=1;" vertex="1" parent="-TYI5EpY2BJb9eIcL_Qs-66">
          <mxGeometry y="120" width="140" height="30" as="geometry" />
        </mxCell>
        <mxCell id="-TYI5EpY2BJb9eIcL_Qs-71" value="message" style="text;strokeColor=none;fillColor=none;align=left;verticalAlign=middle;spacingLeft=4;spacingRight=4;overflow=hidden;points=[[0,0.5],[1,0.5]];portConstraint=eastwest;rotatable=0;whiteSpace=wrap;html=1;" vertex="1" parent="-TYI5EpY2BJb9eIcL_Qs-66">
          <mxGeometry y="150" width="140" height="30" as="geometry" />
        </mxCell>
        <mxCell id="-TYI5EpY2BJb9eIcL_Qs-72" value="1 - 2" style="text;html=1;align=center;verticalAlign=middle;whiteSpace=wrap;rounded=0;" vertex="1" parent="1">
          <mxGeometry x="178" y="402" width="60" height="30" as="geometry" />
        </mxCell>
        <mxCell id="-TYI5EpY2BJb9eIcL_Qs-73" value="*" style="text;html=1;align=center;verticalAlign=middle;whiteSpace=wrap;rounded=0;" vertex="1" parent="1">
          <mxGeometry x="613" y="312" width="60" height="30" as="geometry" />
        </mxCell>
        <mxCell id="-TYI5EpY2BJb9eIcL_Qs-75" style="edgeStyle=orthogonalEdgeStyle;rounded=0;orthogonalLoop=1;jettySize=auto;html=1;entryX=0.502;entryY=1.014;entryDx=0;entryDy=0;entryPerimeter=0;endArrow=none;endFill=0;" edge="1" parent="1" source="-TYI5EpY2BJb9eIcL_Qs-25" target="-TYI5EpY2BJb9eIcL_Qs-24">
          <mxGeometry relative="1" as="geometry" />
        </mxCell>
        <mxCell id="-TYI5EpY2BJb9eIcL_Qs-76" value="1" style="text;html=1;align=center;verticalAlign=middle;whiteSpace=wrap;rounded=0;" vertex="1" parent="1">
          <mxGeometry x="683" y="532" width="60" height="30" as="geometry" />
        </mxCell>
        <mxCell id="-TYI5EpY2BJb9eIcL_Qs-77" value="0 - *" style="text;html=1;align=center;verticalAlign=middle;whiteSpace=wrap;rounded=0;" vertex="1" parent="1">
          <mxGeometry x="683" y="620" width="60" height="30" as="geometry" />
        </mxCell>
        <mxCell id="-TYI5EpY2BJb9eIcL_Qs-78" style="edgeStyle=orthogonalEdgeStyle;rounded=0;orthogonalLoop=1;jettySize=auto;html=1;entryX=0;entryY=0.5;entryDx=0;entryDy=0;endArrow=none;endFill=0;" edge="1" parent="1" source="-TYI5EpY2BJb9eIcL_Qs-3" target="-TYI5EpY2BJb9eIcL_Qs-27">
          <mxGeometry relative="1" as="geometry" />
        </mxCell>
        <mxCell id="-TYI5EpY2BJb9eIcL_Qs-79" value="1" style="text;html=1;align=center;verticalAlign=middle;whiteSpace=wrap;rounded=0;" vertex="1" parent="1">
          <mxGeometry x="525" y="884" width="60" height="30" as="geometry" />
        </mxCell>
        <mxCell id="-TYI5EpY2BJb9eIcL_Qs-80" value="*" style="text;html=1;align=center;verticalAlign=middle;whiteSpace=wrap;rounded=0;" vertex="1" parent="1">
          <mxGeometry x="613" y="697" width="60" height="30" as="geometry" />
        </mxCell>
        <mxCell id="-TYI5EpY2BJb9eIcL_Qs-81" value="1" style="text;html=1;align=center;verticalAlign=middle;whiteSpace=wrap;rounded=0;" vertex="1" parent="1">
          <mxGeometry x="158" y="310" width="60" height="30" as="geometry" />
        </mxCell>
        <mxCell id="-TYI5EpY2BJb9eIcL_Qs-82" value="*" style="text;html=1;align=center;verticalAlign=middle;whiteSpace=wrap;rounded=0;" vertex="1" parent="1">
          <mxGeometry x="213" y="312" width="60" height="30" as="geometry" />
        </mxCell>
        <mxCell id="-TYI5EpY2BJb9eIcL_Qs-85" value="1" style="text;html=1;align=center;verticalAlign=middle;whiteSpace=wrap;rounded=0;" vertex="1" parent="1">
          <mxGeometry x="623" y="472" width="60" height="30" as="geometry" />
        </mxCell>
        <mxCell id="-TYI5EpY2BJb9eIcL_Qs-87" style="edgeStyle=orthogonalEdgeStyle;rounded=0;orthogonalLoop=1;jettySize=auto;html=1;entryX=-0.007;entryY=0.8;entryDx=0;entryDy=0;entryPerimeter=0;exitX=0.5;exitY=0;exitDx=0;exitDy=0;endArrow=none;endFill=0;" edge="1" parent="1" source="-TYI5EpY2BJb9eIcL_Qs-36" target="-TYI5EpY2BJb9eIcL_Qs-23">
          <mxGeometry relative="1" as="geometry">
            <Array as="points">
              <mxPoint x="550" y="612" />
              <mxPoint x="550" y="552" />
              <mxPoint x="643" y="552" />
              <mxPoint x="643" y="496" />
            </Array>
          </mxGeometry>
        </mxCell>
        <mxCell id="-TYI5EpY2BJb9eIcL_Qs-88" value="*" style="text;html=1;align=center;verticalAlign=middle;whiteSpace=wrap;rounded=0;" vertex="1" parent="1">
          <mxGeometry x="500" y="582" width="60" height="30" as="geometry" />
        </mxCell>
        <mxCell id="-TYI5EpY2BJb9eIcL_Qs-89" style="edgeStyle=orthogonalEdgeStyle;rounded=0;orthogonalLoop=1;jettySize=auto;html=1;entryX=0.5;entryY=1.033;entryDx=0;entryDy=0;entryPerimeter=0;endArrow=none;endFill=0;" edge="1" parent="1" source="-TYI5EpY2BJb9eIcL_Qs-42" target="mnpdlEdS9YgkTHyXqgW0-21">
          <mxGeometry relative="1" as="geometry" />
        </mxCell>
        <mxCell id="-TYI5EpY2BJb9eIcL_Qs-90" style="edgeStyle=orthogonalEdgeStyle;rounded=0;orthogonalLoop=1;jettySize=auto;html=1;entryX=1.014;entryY=0.3;entryDx=0;entryDy=0;entryPerimeter=0;endArrow=none;endFill=0;" edge="1" parent="1" source="-TYI5EpY2BJb9eIcL_Qs-52" target="-TYI5EpY2BJb9eIcL_Qs-44">
          <mxGeometry relative="1" as="geometry" />
        </mxCell>
        <mxCell id="-TYI5EpY2BJb9eIcL_Qs-91" style="edgeStyle=orthogonalEdgeStyle;rounded=0;orthogonalLoop=1;jettySize=auto;html=1;entryX=0.5;entryY=0;entryDx=0;entryDy=0;exitX=0;exitY=0.5;exitDx=0;exitDy=0;endArrow=none;endFill=0;" edge="1" parent="1" source="-TYI5EpY2BJb9eIcL_Qs-68" target="mnpdlEdS9YgkTHyXqgW0-1">
          <mxGeometry relative="1" as="geometry" />
        </mxCell>
        <mxCell id="-TYI5EpY2BJb9eIcL_Qs-92" style="edgeStyle=orthogonalEdgeStyle;rounded=0;orthogonalLoop=1;jettySize=auto;html=1;entryX=0.5;entryY=0;entryDx=0;entryDy=0;endArrow=none;endFill=0;" edge="1" parent="1" source="-TYI5EpY2BJb9eIcL_Qs-68" target="-TYI5EpY2BJb9eIcL_Qs-13">
          <mxGeometry relative="1" as="geometry" />
        </mxCell>
        <mxCell id="-TYI5EpY2BJb9eIcL_Qs-93" value="*" style="text;html=1;align=center;verticalAlign=middle;whiteSpace=wrap;rounded=0;" vertex="1" parent="1">
          <mxGeometry x="385" y="120" width="60" height="30" as="geometry" />
        </mxCell>
        <mxCell id="-TYI5EpY2BJb9eIcL_Qs-94" value="2" style="text;html=1;align=center;verticalAlign=middle;whiteSpace=wrap;rounded=0;" vertex="1" parent="1">
          <mxGeometry x="50" y="172" width="60" height="30" as="geometry" />
        </mxCell>
        <mxCell id="-TYI5EpY2BJb9eIcL_Qs-95" value="*" style="text;html=1;align=center;verticalAlign=middle;whiteSpace=wrap;rounded=0;" vertex="1" parent="1">
          <mxGeometry x="585" y="120" width="60" height="30" as="geometry" />
        </mxCell>
        <mxCell id="-TYI5EpY2BJb9eIcL_Qs-96" value="1" style="text;html=1;align=center;verticalAlign=middle;whiteSpace=wrap;rounded=0;" vertex="1" parent="1">
          <mxGeometry x="740" y="172" width="60" height="30" as="geometry" />
        </mxCell>
        <mxCell id="-TYI5EpY2BJb9eIcL_Qs-97" style="edgeStyle=orthogonalEdgeStyle;rounded=0;orthogonalLoop=1;jettySize=auto;html=1;entryX=0;entryY=0.5;entryDx=0;entryDy=0;endArrow=none;endFill=0;" edge="1" parent="1" source="-TYI5EpY2BJb9eIcL_Qs-49" target="-TYI5EpY2BJb9eIcL_Qs-20">
          <mxGeometry relative="1" as="geometry">
            <Array as="points">
              <mxPoint x="430" y="697" />
              <mxPoint x="430" y="570" />
              <mxPoint x="526" y="570" />
              <mxPoint x="526" y="397" />
            </Array>
          </mxGeometry>
        </mxCell>
        <mxCell id="-TYI5EpY2BJb9eIcL_Qs-100" value="1" style="text;html=1;align=center;verticalAlign=middle;whiteSpace=wrap;rounded=0;" vertex="1" parent="1">
          <mxGeometry x="623" y="367" width="60" height="30" as="geometry" />
        </mxCell>
        <mxCell id="-TYI5EpY2BJb9eIcL_Qs-101" value="*" style="text;html=1;align=center;verticalAlign=middle;whiteSpace=wrap;rounded=0;" vertex="1" parent="1">
          <mxGeometry x="364" y="667" width="60" height="30" as="geometry" />
        </mxCell>
        <mxCell id="-TYI5EpY2BJb9eIcL_Qs-102" value="1" style="text;html=1;align=center;verticalAlign=middle;whiteSpace=wrap;rounded=0;" vertex="1" parent="1">
          <mxGeometry x="158" y="742" width="60" height="30" as="geometry" />
        </mxCell>
        <mxCell id="-TYI5EpY2BJb9eIcL_Qs-104" value="*" style="text;html=1;align=center;verticalAlign=middle;whiteSpace=wrap;rounded=0;" vertex="1" parent="1">
          <mxGeometry x="198" y="703" width="60" height="30" as="geometry" />
        </mxCell>
        <mxCell id="-TYI5EpY2BJb9eIcL_Qs-105" value="1" style="text;html=1;align=center;verticalAlign=middle;whiteSpace=wrap;rounded=0;" vertex="1" parent="1">
          <mxGeometry x="60" y="667" width="60" height="30" as="geometry" />
        </mxCell>
        <mxCell id="-TYI5EpY2BJb9eIcL_Qs-106" value="*" style="text;html=1;align=center;verticalAlign=middle;whiteSpace=wrap;rounded=0;" vertex="1" parent="1">
          <mxGeometry x="60" y="562" width="60" height="30" as="geometry" />
        </mxCell>
      </root>
    </mxGraphModel>
  </diagram>
  <diagram id="Xk3ZmtahhJHmnBYDq1RS" name="Use Cases">
    <mxGraphModel dx="4780" dy="2947" grid="1" gridSize="10" guides="1" tooltips="1" connect="1" arrows="1" fold="1" page="1" pageScale="1" pageWidth="850" pageHeight="1100" math="0" shadow="0">
      <root>
        <mxCell id="0" />
        <mxCell id="1" parent="0" />
        <mxCell id="PhZ9VOiX90wxMRaZxsw4-1" value="" style="rounded=0;whiteSpace=wrap;html=1;" vertex="1" parent="1">
          <mxGeometry width="850" height="2200" as="geometry" />
        </mxCell>
        <mxCell id="PhZ9VOiX90wxMRaZxsw4-15" value="" style="edgeStyle=orthogonalEdgeStyle;rounded=0;orthogonalLoop=1;jettySize=auto;html=1;" edge="1" parent="1">
          <mxGeometry relative="1" as="geometry">
            <mxPoint x="74.6" y="190" as="sourcePoint" />
            <mxPoint x="74.6" y="270" as="targetPoint" />
          </mxGeometry>
        </mxCell>
        <mxCell id="PhZ9VOiX90wxMRaZxsw4-2" value="Visitor" style="shape=umlActor;verticalLabelPosition=bottom;verticalAlign=top;html=1;outlineConnect=0;" vertex="1" parent="1">
          <mxGeometry x="50" y="40" width="50" height="100" as="geometry" />
        </mxCell>
        <mxCell id="PhZ9VOiX90wxMRaZxsw4-13" value="Student" style="shape=umlActor;verticalLabelPosition=bottom;verticalAlign=top;html=1;outlineConnect=0;" vertex="1" parent="1">
          <mxGeometry x="50" y="310" width="50" height="100" as="geometry" />
        </mxCell>
        <mxCell id="PhZ9VOiX90wxMRaZxsw4-20" value="" style="edgeStyle=orthogonalEdgeStyle;rounded=0;orthogonalLoop=1;jettySize=auto;html=1;" edge="1" parent="1">
          <mxGeometry relative="1" as="geometry">
            <mxPoint x="74.6" y="460" as="sourcePoint" />
            <mxPoint x="74.6" y="540" as="targetPoint" />
          </mxGeometry>
        </mxCell>
        <mxCell id="PhZ9VOiX90wxMRaZxsw4-21" value="Teacher" style="shape=umlActor;verticalLabelPosition=bottom;verticalAlign=top;html=1;outlineConnect=0;" vertex="1" parent="1">
          <mxGeometry x="50" y="580" width="50" height="100" as="geometry" />
        </mxCell>
        <mxCell id="PhZ9VOiX90wxMRaZxsw4-22" value="" style="edgeStyle=orthogonalEdgeStyle;rounded=0;orthogonalLoop=1;jettySize=auto;html=1;" edge="1" parent="1">
          <mxGeometry relative="1" as="geometry">
            <mxPoint x="74.6" y="740" as="sourcePoint" />
            <mxPoint x="74.6" y="820" as="targetPoint" />
          </mxGeometry>
        </mxCell>
        <mxCell id="PhZ9VOiX90wxMRaZxsw4-23" value="Manager" style="shape=umlActor;verticalLabelPosition=bottom;verticalAlign=top;html=1;outlineConnect=0;" vertex="1" parent="1">
          <mxGeometry x="50" y="860" width="50" height="100" as="geometry" />
        </mxCell>
        <mxCell id="PhZ9VOiX90wxMRaZxsw4-24" value="" style="edgeStyle=orthogonalEdgeStyle;rounded=0;orthogonalLoop=1;jettySize=auto;html=1;" edge="1" parent="1">
          <mxGeometry relative="1" as="geometry">
            <mxPoint x="74.6" y="1010" as="sourcePoint" />
            <mxPoint x="74.6" y="1090" as="targetPoint" />
          </mxGeometry>
        </mxCell>
        <mxCell id="PhZ9VOiX90wxMRaZxsw4-25" value="Supervisor" style="shape=umlActor;verticalLabelPosition=bottom;verticalAlign=top;html=1;outlineConnect=0;" vertex="1" parent="1">
          <mxGeometry x="50" y="1130" width="50" height="100" as="geometry" />
        </mxCell>
        <mxCell id="PhZ9VOiX90wxMRaZxsw4-26" value="" style="edgeStyle=orthogonalEdgeStyle;rounded=0;orthogonalLoop=1;jettySize=auto;html=1;" edge="1" parent="1">
          <mxGeometry relative="1" as="geometry">
            <mxPoint x="74.6" y="1310" as="sourcePoint" />
            <mxPoint x="74.6" y="1390" as="targetPoint" />
          </mxGeometry>
        </mxCell>
        <mxCell id="PhZ9VOiX90wxMRaZxsw4-27" value="Admin" style="shape=umlActor;verticalLabelPosition=bottom;verticalAlign=top;html=1;outlineConnect=0;" vertex="1" parent="1">
          <mxGeometry x="50" y="1430" width="50" height="100" as="geometry" />
        </mxCell>
      </root>
    </mxGraphModel>
  </diagram>
</mxfile>
